<?xml version="1.0" standalone="no"?>
<!DOCTYPE svg PUBLIC "-//W3C//DTD SVG 20010904//EN"
 "http://www.w3.org/TR/2001/REC-SVG-20010904/DTD/svg10.dtd">
<svg version="1.0" xmlns="http://www.w3.org/2000/svg"
 width="1280.000000pt" height="841.000000pt" viewBox="0 0 1280.000000 841.000000"
 preserveAspectRatio="xMidYMid meet">
<metadata>
Created by potrace 1.15, written by Peter Selinger 2001-2017
</metadata>
<g transform="translate(0.000000,841.000000) scale(0.100000,-0.100000)"
fill="#000000" stroke="none">
<path d="M6345 8404 c-27 -2 -117 -8 -200 -14 -1121 -80 -2204 -449 -3155
-1076 -629 -414 -1209 -959 -1661 -1561 -1161 -1545 -1587 -3509 -1173 -5408
48 -223 80 -341 90 -335 11 6 11 5 -26 150 -174 689 -232 1482 -159 2190 6 58
12 106 14 108 2 2 79 -8 172 -22 348 -52 810 -99 1178 -119 l210 -12 8 -90
c20 -248 81 -658 138 -935 63 -303 164 -690 182 -690 5 0 6 7 3 16 -17 44 -89
323 -125 481 -83 369 -155 827 -177 1118 l-6 90 523 1 c288 0 621 5 739 12
255 15 661 48 815 67 61 7 111 13 111 12 1 -1 32 -119 69 -262 66 -261 117
-442 181 -655 45 -148 44 -144 49 -138 2 2 -5 33 -16 69 -83 272 -274 978
-265 986 1 2 86 14 187 27 759 101 1584 287 2326 524 l121 39 95 -271 c52
-149 125 -358 162 -464 38 -106 70 -191 71 -189 2 2 -66 212 -151 467 -86 254
-155 463 -153 465 2 1 53 19 113 39 720 249 1476 583 2093 925 138 76 143 78
152 58 4 -12 27 -65 50 -117 85 -191 189 -451 320 -794 6 -16 13 -27 15 -24 9
9 -226 601 -339 858 -26 58 -43 106 -39 107 19 7 351 204 498 296 384 240 836
555 1133 790 35 27 65 48 67 46 2 -2 38 -62 81 -134 223 -375 402 -732 565
-1130 32 -77 62 -141 68 -143 6 -2 -16 61 -48 140 -160 390 -341 758 -559
1128 -46 80 -86 148 -88 151 -2 3 49 48 114 100 262 212 459 383 746 648 92
86 172 156 176 156 10 0 155 -170 255 -299 167 -215 361 -503 510 -761 78
-133 251 -481 315 -630 51 -118 65 -144 75 -133 16 15 -239 548 -383 798 -892
1557 -2373 2690 -4097 3135 -373 97 -700 153 -1105 190 -153 15 -749 28 -865
19z m673 -101 c78 -3 142 -9 142 -12 -1 -3 -51 -37 -111 -75 -124 -77 -100
-74 -284 -32 -154 36 -306 62 -475 81 -164 18 -184 23 -120 25 25 2 95 6 155
10 151 9 520 11 693 3z m537 -48 c290 -37 567 -91 835 -161 161 -42 490 -145
490 -153 -1 -8 -167 -137 -373 -292 l-168 -126 -132 79 c-322 192 -749 384
-1071 482 -48 15 -85 30 -82 33 3 4 59 41 123 84 83 54 128 78 150 78 18 1
120 -10 228 -24z m-1350 -75 c206 -18 615 -84 615 -100 0 -3 -17 -14 -38 -26
-20 -11 -98 -54 -172 -96 -74 -41 -193 -105 -264 -142 l-129 -66 -91 58 c-260
168 -524 288 -731 333 l-60 13 55 8 c171 27 597 36 815 18z m-825 -130 c135
-27 279 -76 427 -143 124 -57 325 -169 331 -185 10 -30 -1030 -453 -1055 -429
-5 6 -252 737 -253 749 0 7 38 16 130 29 92 13 306 3 420 -21z m1757 -50 c150
-45 359 -122 513 -187 192 -83 610 -298 625 -324 7 -10 -348 -246 -580 -384
-197 -118 -479 -275 -493 -275 -5 0 -54 51 -108 113 -237 270 -585 597 -775
730 -12 9 -21 19 -18 21 3 3 81 45 174 94 94 50 235 128 315 175 168 100 148
97 347 37z m-2282 -361 c72 -203 131 -373 133 -377 3 -9 -259 -89 -473 -145
-248 -66 -702 -164 -712 -154 -7 8 70 184 130 301 142 273 339 502 540 630 71
45 215 116 236 116 12 0 51 -99 146 -371z m4197 245 c381 -144 920 -413 1196
-599 l32 -22 -112 -105 c-195 -180 -603 -531 -656 -562 -8 -5 -52 30 -130 105
-283 272 -597 526 -887 719 -60 40 -114 76 -118 80 -5 4 63 60 150 123 87 64
212 159 278 211 66 52 121 95 122 96 0 0 57 -21 125 -46z m-4903 -146 c-140
-165 -280 -413 -374 -662 -25 -66 -48 -123 -52 -127 -17 -16 -738 -107 -750
-95 -3 2 73 83 169 179 313 314 601 531 963 723 55 30 101 54 103 54 1 0 -26
-33 -59 -72z m2191 -150 c155 -116 315 -253 463 -397 137 -133 357 -367 357
-380 0 -18 -532 -269 -820 -386 -267 -109 -817 -305 -856 -305 -7 0 -88 226
-190 533 -97 292 -179 537 -181 542 -1 6 48 28 109 49 262 90 645 247 878 359
63 30 122 56 130 56 8 0 58 -31 110 -71z m-2825 -91 c-154 -114 -403 -349
-563 -532 -58 -66 -106 -121 -106 -122 -3 -4 -351 -22 -354 -18 -5 5 224 178
366 278 160 112 329 220 517 329 146 85 200 110 140 65z m5007 -160 c283 -188
521 -377 796 -629 127 -116 151 -142 141 -155 -19 -22 -374 -286 -559 -416
-197 -138 -411 -275 -654 -421 -146 -88 -181 -105 -191 -94 -6 7 -58 87 -115
178 -177 284 -398 596 -608 858 -63 79 -112 145 -111 147 2 2 74 41 159 88
267 145 538 310 801 487 155 104 113 110 341 -43z m1931 -189 c367 -255 764
-595 1036 -888 l104 -111 -44 -46 c-177 -182 -932 -847 -977 -860 -4 -1 -66
86 -138 195 -251 376 -566 771 -838 1049 -38 40 -68 74 -65 76 237 188 477
393 664 565 66 61 121 111 123 112 2 0 63 -41 135 -92z m-5402 -63 c35 -104
335 -955 344 -976 14 -36 -711 -214 -1221 -299 -194 -32 -555 -80 -605 -80
-30 0 -30 1 -25 43 3 23 13 103 21 177 33 279 103 619 172 830 l28 85 140 27
c299 57 682 151 945 232 80 25 151 44 159 43 8 -1 26 -36 42 -82z m-1372 -302
c-72 -250 -134 -602 -161 -915 -10 -121 -15 -148 -28 -148 -8 0 -91 -7 -185
-15 -246 -21 -838 -38 -977 -28 l-116 8 65 130 c155 311 346 613 542 857 l66
83 65 7 c384 41 473 51 576 67 66 10 131 19 146 20 l27 1 -20 -67z m3682 -210
c173 -213 345 -450 514 -707 145 -221 171 -263 164 -269 -10 -11 -270 -152
-429 -235 -320 -166 -780 -372 -1125 -505 -211 -80 -525 -191 -529 -186 -4 4
-468 1399 -470 1412 0 4 105 43 234 86 462 155 932 350 1345 558 l120 61 20
-23 c11 -13 81 -99 156 -192z m-4613 145 c-195 -256 -358 -523 -516 -845 -79
-162 -98 -193 -116 -193 -93 0 -686 48 -695 56 -2 2 23 36 55 76 237 296 515
585 809 842 l97 85 136 4 c76 1 163 4 196 5 l58 2 -24 -32z m6890 -325 c304
-323 541 -619 793 -990 l120 -178 -33 -28 c-173 -146 -628 -475 -958 -693
-266 -175 -679 -426 -693 -421 -5 1 -62 115 -126 252 -183 390 -376 757 -576
1098 -47 82 -85 150 -83 151 2 1 102 61 223 133 354 212 696 442 1036 698 84
63 156 115 160 115 4 0 66 -62 137 -137z m-4215 -365 c8 -24 47 -133 85 -243
65 -186 352 -999 385 -1091 l15 -42 -111 -35 c-638 -202 -1335 -355 -2022
-443 -104 -13 -195 -24 -201 -24 -13 0 -28 158 -45 460 -13 227 -7 1005 8
1055 7 23 16 31 39 33 207 20 664 92 936 147 197 40 647 151 788 194 52 16 98
30 102 30 3 1 13 -18 21 -41z m-3878 -352 c83 -8 245 -20 360 -26 116 -7 211
-13 213 -14 1 -2 -14 -41 -33 -87 -148 -345 -303 -895 -375 -1329 -6 -36 -13
-78 -16 -94 l-6 -29 -122 7 c-296 17 -1012 98 -1031 118 -3 2 13 45 34 95 143
329 336 685 534 983 126 189 270 389 282 389 6 1 78 -6 160 -13z m1948 -343
c-6 -364 3 -601 33 -981 10 -111 15 -204 13 -206 -9 -8 -527 -46 -769 -57
-245 -11 -1025 -7 -1037 5 -7 7 49 302 89 466 79 327 191 669 316 961 l49 114
409 6 c369 6 564 15 784 38 41 5 85 9 96 10 l22 1 -5 -357z m4654 100 c133
-226 258 -454 388 -708 122 -237 320 -654 313 -660 -23 -20 -427 -233 -683
-360 -439 -218 -770 -363 -1200 -525 -219 -83 -454 -164 -458 -159 -16 20
-537 1612 -531 1619 5 4 68 28 139 53 599 208 1242 493 1785 791 85 47 157 86
160 86 3 0 42 -62 87 -137z m-2203 -885 c144 -404 536 -1524 536 -1532 0 -20
-513 -174 -935 -280 -474 -120 -894 -203 -1374 -271 -135 -19 -262 -37 -282
-40 l-36 -5 -47 213 c-57 263 -118 582 -156 832 -45 294 -88 645 -79 645 19 0
408 55 534 75 548 88 1176 237 1665 394 69 22 130 40 136 41 7 0 24 -33 38
-72z m-5184 -422 c252 -32 586 -63 773 -72 81 -4 147 -10 147 -13 0 -4 -7 -58
-15 -121 -37 -291 -47 -456 -52 -836 -4 -253 -1 -450 6 -559 7 -92 10 -170 7
-173 -8 -7 -337 14 -601 39 -259 24 -468 50 -738 91 l-209 32 7 60 c12 108 64
400 100 562 68 303 169 640 273 907 l45 119 31 -6 c17 -3 119 -17 226 -30z
m2790 -29 c0 -7 11 -102 25 -212 51 -403 121 -806 214 -1235 27 -124 48 -226
47 -228 -6 -5 -393 -42 -596 -56 -427 -30 -737 -39 -1159 -32 -228 3 -418 9
-423 14 -4 4 -13 133 -19 286 -18 394 1 805 56 1246 9 69 18 132 21 140 3 14
60 16 471 16 455 0 673 8 1033 40 146 12 290 27 323 33 4 0 7 -5 7 -12z"
fill="#8906E6"/>
</g>
</svg>
